<?xml version="1.0" encoding="UTF-8" standalone="no"?>
<svg
   xmlns:dc="http://purl.org/dc/elements/1.1/"
   xmlns:cc="http://creativecommons.org/ns#"
   xmlns:rdf="http://www.w3.org/1999/02/22-rdf-syntax-ns#"
   xmlns:svg="http://www.w3.org/2000/svg"
   xmlns="http://www.w3.org/2000/svg"
   xmlns:sodipodi="http://sodipodi.sourceforge.net/DTD/sodipodi-0.dtd"
   xmlns:inkscape="http://www.inkscape.org/namespaces/inkscape"
   width="210mm"
   height="297mm"
   viewBox="0 0 210 297"
   version="1.1"
   id="svg8"
   inkscape:version="1.0.2-2 (e86c870879, 2021-01-15)"
   sodipodi:docname="drawing.svg">
  <defs
     id="defs2" />
  <sodipodi:namedview
     id="base"
     pagecolor="#ffffff"
     bordercolor="#666666"
     borderopacity="1.0"
     inkscape:pageopacity="0.0"
     inkscape:pageshadow="2"
     inkscape:zoom="0.7"
     inkscape:cx="225.17016"
     inkscape:cy="607.18252"
     inkscape:document-units="mm"
     inkscape:current-layer="layer1"
     inkscape:document-rotation="0"
     showgrid="false"
     inkscape:window-width="1920"
     inkscape:window-height="1057"
     inkscape:window-x="1358"
     inkscape:window-y="-8"
     inkscape:window-maximized="1" />
  <metadata
     id="metadata5">
    <rdf:RDF>
      <cc:Work
         rdf:about="">
        <dc:format>image/svg+xml</dc:format>
        <dc:type
           rdf:resource="http://purl.org/dc/dcmitype/StillImage" />
        <dc:title></dc:title>
      </cc:Work>
    </rdf:RDF>
  </metadata>
  <g
     inkscape:label="Layer 1"
     inkscape:groupmode="layer"
     id="layer1">
    <path
       style="fill:none;stroke:#000000;stroke-width:0.264583px;stroke-linecap:butt;stroke-linejoin:miter;stroke-opacity:1"
       d="
       m 89.202381,92.982141
       c 0,0 -38.931548,1.13393 -47.247024,-20.78869
       C 33.639881,50.270833 6.8035714,149.67857 6.8035714,149.67857
       c 0,0 35.5297616,-38.55357 34.7738096,-24.19048 -0.755954,14.3631 -0.377976,15.11905 -0.377976,15.11905 0,0 42.711309,10.20536 51.404761,35.52976 8.693454,25.32441 8.693454,25.70238 8.693454,25.70238 0,0 10.20535,-48.38095 37.04166,-53.29464 26.83631,-4.91369 26.83631,-4.91369 26.83631,-4.91369 0,0 0.75596,-17.76488 5.66965,-19.27678 4.91369,-1.51191 23.8125,29.10416 23.8125,29.10416 0,0 -6.4256,-97.139879 -18.89881,-83.154758 -12.47322,13.985118 -27.97024,24.568451 -44.22322,24.190475 -16.25297,-0.377976 -16.25297,-1.13393 -16.25297,-1.13393 0,0 -4.15774,-13.607142 -0.75596,-15.875 3.40179,-2.267857 1.88989,-2.267857 1.88989,-2.267857 0,0 -4.9137,-1.889879 -6.80358,2.267857 -1.88988,4.157739 -1.5119,4.157739 -1.5119,4.157739
       h -7.55952
       v 0
       c 0,0 1.88988,-4.157739 -1.889886,-6.047618 -3.779761,-1.889881 -3.779761,-1.889881 -3.779761,-1.889881 0,0 3.401785,17.008927 -5.669642,19.276784 z"
       id="path50" />
  </g>
</svg>
