<svg id="Layer_2" data-name="Layer 2" xmlns="http://www.w3.org/2000/svg" viewBox="0 0 422.36 679.68">
    <defs>
        <style>.cls-1{fill:none;stroke:#231f20;stroke-miterlimit:10;}</style>
        </defs>
        <path 
        class="cls-1" 
        d="
        M 458.23,383.56
        s 11.09-26.93,0-62.72
        c 0,0,21.22-27.55,35.16-30.72
        a 38.08,38.08,0,0,1,5.38-21.22
        s -3.8-5.39,4.75-17.74l-6.65-11.72
        s 18.69-23.12,19-74.11
        c 0,0,6-21.86-19.32-29.14,0,0-18.06-5.38-18.69-16.47
        l -8.87-26
        L 448.1,75.38
        s 8.55,8.55,7.6,11.4-15.52-11.4-15.52-11.4l7.6,12.35s-14.25-12.35-29.46-12.35l2.54,4.43s-93.75-50.36-240.72-2.53c0,0,25.34-2.85,29.46.31,0,0-36.11,1-62.08,7l10.77,1s-30.72.64-34.21,17.42c0,0-9.82,7.92-7.28,16.79,0,0-32.51,6.65-.42,16.15l-1.48,6.65s-14.26,5.39-7.6,13c0,0-12.67.32-11.41,10.77,0,0,8.38-6.6,9.19-1.58,0,0-11.58,7.6-9.28,13.61,0,0,11.18-11.71,12.13-4.11,0,0-9.66,1.26-12.43,22.48,0,0,8-15.2,10.53-8.86,0,0-10.77,13.93-7,48.77,0,0,11.4,11.72,21.54,38.64L138,324s-6-.95-7.92,13.62,24.39,63,24.39,63,17.42,26.29,19,5.7l-2-23.6,5.7,7.84-8.55-51.31s13.54-69.84,17.82-124l12.11-20.66a333.54,333.54,0,0,0,47.75-28.51l52.73-5.7L330.43,164,354,154l31.35.71s39.91,5.7,49.89,22.8,15.68,114,15.68,114-7.13-25.66-37.06-35.64c0,0-10-5-39.2,15L354,296.53s63.42-29.21,86.94-14.25c0,0-22.8-20.67-92.64,18.53l3.56,21.38s7.84-15,27.79-16.39c0,0-14.25,15,7.84,19.95S401,303,395.28,306.51c0,0,14.25-5,29.93,7.84,0,0-18.53,19.95-34.92,19.95s-27.79,1.43-37.77-5.7q3.71,15.82,7.84,32.07,3.51,13.75,7.13,27.08a28.66,28.66,0,0,1,17.81,11.4,28.29,28.29,0,0,1,5,17.82c-4.77,5.81-9.44,8.18-12.82,9.26-6.6,2.11-9.36-.31-15.68,2.85,0,0-1.2.6-10,7.13h0s-17.1,9.27-29.22-6.41c0,0-32.07,0-37.77-18.53s17.11-20,17.11-20-.72-25.65.71-59.14l3.36-27.8S292,275.15,250.62,271.59s-57.73,20.67-57.73,20.67-2.29,15,12.83,8.55c0,0,44.18-23.52,74.11,6.41,0,0,14.26,9.27,16.39,24.95,0,0-10.07-22-37.77-30.65s-49.88,24.94-49.88,24.94,7.74-14.89,42.05-15S292,334.3,292,334.3s-.56-12.65-23.52-15.67c0,0,3.56,19.24-12.11,19.24,0,0-18.56.16-10-18.53,0,0-12.83-4.28-28.51,16.39,0,0,43,28.5,65.57-1.43s14.25,52,14.25,52-23.52-16.39-44.9,35.63c0,0-15.68,23.52-1.42,47.75l13.54-17.82s36.34.71,51.31-2.85L334,455.45l19.25-7.84,34.2,5.7s-34.2,22.81-114.73,2.14c0,0,29.93,32.07,59.15,27.8,0,0,34.2,3.56,54.87-24.95l10,1.43S354,516,353.24,527.43c0,0-34.2,29.93-61.29,0,0,0-20.67-32.78-34.92-41.33,0,0-26.37-9.27-30.64,3.56,0,0,22.09,20.9,24.94,51.07,0,0,22.8,24.47,48.46,43l2.85,15s-84.09-19.24-123.29-93.35c0,0,2.85-32.07,9.27-48.46,0,0,17.1,34.2,43.47,48.46,0,0-57-56.3-53.45-90.51V458.3L168,503.91S188.21,580.16,306,614.37L318.32,675,306,735.34H438.75s7.84-32.6,33.5-69c0,0,32.78-60.57,32.07-70.55,0,0,7.83-13.54-24.23-34.92,0,0-14.26-32.78-44.19-47.74l-14.25-1.43s26.37-41.33,30.64-50.6l27.8-57,12.11-27.09-9.26,10.69-8.56-3.56,6.42-14.25,10,1.42s1.42-8.55-19.25-3.56c0,0-34.2,49.88-40.62,64.14l-28.5,31.35S440.65,422.12,458.23,383.56Z" transform="translate(-94.64 -56.16)"/>
</svg>